<svg xmlns="http://www.w3.org/2000/svg" viewBox="0 0 263.88 107.19"><defs><style>.cls-1{fill:#2b2b2a;}</style></defs><g id="Layer_1" data-name="Layer 1"><path class="cls-1" d="M160.25,39.33c1.14-6.45,7.42-12.42,12.28-15.5,2.19-2,7.23-4.85,7.89-8.74a.49.49,0,0,0-.66-.58c-2.7,1.15-6.14,2.19-8.56,4.21-1.92,1.61-25.34,19.19-36.7,22.08-8.8,2.23-38.63,5.77-34.83,3.89,5.6-2.76,19.31-4.89,25.42-5.92,7.66-1.28,18.67-6.34,25.79-12.31.81-.68.74-1.61.16-2.72-2.63-5.06-1.92-8.07-7.82-8.92-14-2-31.23,17.46-34.73,17.22-1.62-.11,4.63-7.43,6.1-8.84a18.17,18.17,0,0,0,2.14-1.94c.46-.66,2.39-2.18-.34-1.38a20.72,20.72,0,0,0-2.19.71C104,25,95.87,33.08,85.76,38.2c-4.82,2.44-10.78,2.77-16,4-.21.05-.48-.16-.59-.17,2.43-1.25,6.7-2.94,9-4.53,10.81-7.63,30.91-21.64,40-25.42s13-4,17.13-5.75c8.3-1.34,10.25-.53,13.28.5,2.54,1.16,2.92,2.13,4.7,4,.86.92,1.36,2.28,2.15,3.2,5.22,6.09,7.1,5.67,12.27-.65,1.25-1.52,3.81-2.52,5.93-3.26,8.14-2.85,16.24-6.29,24.53-9.06,5.19-1.72,10-1.69,14.48,2.2s8.5,9,13.12,12.93c8.2,7,16.59,13.87,25,20.57,4.28,3.4,8.75,6.52,13.14,9.75l-.3.61c-4.09-1.77-8.09-2.8-12-5.18C241.38,35.71,233.07,30.18,222.19,23a151.41,151.41,0,0,1-13-10.42,9.8,9.8,0,0,0-1.74-1.28.78.78,0,0,0-1.15.48,6,6,0,0,0-.12,3.65,4.34,4.34,0,0,0,1.36,2c4.83,4.13,12.38,11.7,16.93,15.28A2.61,2.61,0,0,1,225.3,34c0,.19-.55.26-.8.2-5.58-1.52-16.1-9.79-20.41-13s-4.67-7.84-9.3-9.57Z"/><path class="cls-1" d="M85,77a8.71,8.71,0,0,1-7.55,4.45,7.23,7.23,0,0,1-1.78-.22c-3,3.79-7.06,7-11.8,7-4.11,0-6.3-3.27-6.3-7.42a11.93,11.93,0,0,1,.2-2.23,1,1,0,0,1-.55.15c-.75,0-1.23-.45-1.23-1.41a2.54,2.54,0,0,1,.55-1.42c2.26-3,4.52-6.16,7-9.06,3.16-3.71,7.82-7.72,12.76-7.72,3.77,0,5.55,2.6,5.55,6.53,0,4.09-1.78,8.4-3.63,11.74a2.45,2.45,0,0,0,.82.15c2,0,3.09-1.71,3.91-2.68a1.2,1.2,0,0,1,1-.52,1.43,1.43,0,0,1,1.44,1.41A2,2,0,0,1,85,77Zm-8.3-13.3c-2.74,0-6,7.21-7,9.58-1,2.16-2.46,5.5-2.46,7.73,0,.82.34,1.56,1.23,1.56,1.64,0,3.42-2.43,4-3.57,0,0,2.58-4.64,3-5.72s2.27-5.42,2.27-7.72C77.77,64.78,77.56,63.74,76.67,63.74Z"/><path class="cls-1" d="M117.61,76.82c-2.33,3.49-7.48,8.91-9.88,10.1a8.66,8.66,0,0,1-4.39,1.26c-2.47,0-4-1.56-4-4.23,0-4.39,5.28-12.56,5.28-13.82,0-.37-.14-.52-.41-.52-1.86,0-11,12.48-12.62,14.78s-3.29,3.79-5.69,3.79c-1.1,0-2.75-.37-2.75-2a4.59,4.59,0,0,1,.48-1.63c2.27-4.75,4.6-9.43,6.79-14.19l-.27-.22c-1.65,2.15-3.64,5.12-6,8a1.41,1.41,0,0,1-1.1.44A1.33,1.33,0,0,1,81.88,77a2.69,2.69,0,0,1,.55-1.49c2-2.67,3.91-5.12,5.83-7.72s3.63-5.27,5.62-7.65a2.88,2.88,0,0,1,2.33-1.41c2.13,0,3.91,3.64,3.91,5.64,0,2.3-1.58,4.9-2.61,6.91,2.95-3.34,10.77-12,15.16-12a3.12,3.12,0,0,1,3.09,3.34c0,2-1.31,4.31-2.13,6a77.75,77.75,0,0,0-4.25,10.63,3.28,3.28,0,0,0-.14.81c0,.37.14.6.41.6,1.44,0,5.15-5.13,6.24-6.54a1.39,1.39,0,0,1,2.47,1A2.9,2.9,0,0,1,117.61,76.82Z"/><path class="cls-1" d="M137.56,64.41h-4.18c-1,2.3-6.65,14.48-6.65,16,0,.52.27.82.75.82,2.4,0,6-4.9,7.61-7a1.16,1.16,0,0,1,1-.52,1.46,1.46,0,0,1,1.38,1.55,2.4,2.4,0,0,1-.55,1.49,39.47,39.47,0,0,1-3.5,4.38c-3.43,3.72-8,7.06-12.14,7.06-2.81,0-4.59-1.34-4.59-4.53,0-3.79,3.84-10,5.76-13.22l-.28-.15c-1.71,2.67-3.49,5.27-5.48,7.87a1.44,1.44,0,0,1-1.24.67,1.41,1.41,0,0,1-1.3-1.56,2.15,2.15,0,0,1,.41-1.26c2.68-3.64,5.76-7.5,8.5-11.59h-.89c-1,0-2-.52-2-1.71a1.71,1.71,0,0,1,.07-.59c.48-2,2-2.23,3.57-2.23H126c2-3,3.77-6.24,5.76-9.43.48-.6.89-1.26,1.65-1.26,1.85,0,3.63,3.78,3.63,5.49a12.45,12.45,0,0,1-1.64,5.2h3.15a1.68,1.68,0,0,1,1.65,1.71A2.92,2.92,0,0,1,137.56,64.41Z"/><path class="cls-1" d="M167.67,76.59c-3.09,4.38-8.85,11.59-14.34,11.59-2.67,0-4.25-1.64-4.25-4.53a7.66,7.66,0,0,1,.21-1.78c-2.74,2.74-6.72,6.23-10.63,6.23-3.09,0-4.32-2.45-4.32-5.42a10.06,10.06,0,0,1,.89-4.16A1.5,1.5,0,0,1,133.65,77v-.15a2.71,2.71,0,0,1,.83-1.86c1.92-2.45,5.34-6.76,6.24-7.72,3.49-3.79,7.68-8,13.09-8,1.65,0,3.5.44,4.26,2.3.68-1.71,2.12-6.46,4.25-6.46s4,4.31,4,6.38a8.08,8.08,0,0,1-.76,3.27c-2.13,4.83-4.73,9.44-6.31,14.49a3.94,3.94,0,0,0-.14.81c0,.37.14.6.42.6,1.37,0,4.59-4.38,6.17-6.39a1.61,1.61,0,0,1,1.09-.67h.14a1.3,1.3,0,0,1,1.3,1.49A3,3,0,0,1,167.67,76.59Zm-13.31-12c-3.08,0-9.53,12.11-9.53,15.23,0,.67.27,1,.76,1,3.15,0,10.28-11.36,10.28-14.63C155.87,65.15,155.39,64.63,154.36,64.63Z"/><path class="cls-1" d="M198.25,76.74a45.51,45.51,0,0,1-4.18,4.9,29.31,29.31,0,0,1-8.16,5.65c-4,8.54-9.19,19.9-19.48,19.9-3,0-6.58-1.56-6.58-5.42,0-7,11.59-11.14,16.53-13.15l2.19-5c-2.54,1.93-5.76,4.45-9,4.45-3.09,0-4.46-2.3-4.46-5.49a9.07,9.07,0,0,1,.89-4.09c-.14,0-.27.08-.41.08A1.47,1.47,0,0,1,164.1,77a2,2,0,0,1,.27-1,97.35,97.35,0,0,1,7.14-8.69c3.49-3.79,7.61-8,12.89-8,1.71,0,3.56.52,4.32,2.38.75-1.56,2.19-6.17,4.05-6.17,2.19,0,4,3.79,4,5.8a9.05,9.05,0,0,1-.89,3.49c-2.47,5.94-5.14,11.66-7.82,17.6a27.52,27.52,0,0,0,5.08-4.31c.89-.89,2.19-2.67,2.95-3.64a1.75,1.75,0,0,1,1.37-.74h.2a1.18,1.18,0,0,1,1.1,1.34A2.58,2.58,0,0,1,198.25,76.74Zm-31.95,25.1c0,.82.41,1.56,1.23,1.56,2.81,0,6-8.39,7.06-10.84C171.78,94.19,166.3,97.91,166.3,101.84Zm18.92-37.21H185c-3.3.3-9.54,12.19-9.54,15.3,0,.67.28,1,.76,1,3.15,0,10.28-11.36,10.28-14.63C186.52,65.23,186.11,64.63,185.22,64.63Z"/><path class="cls-1" d="M230.55,76.82c-2.33,3.49-7.47,8.91-9.87,10.1a8.69,8.69,0,0,1-4.39,1.26c-2.47,0-4-1.56-4-4.23,0-4.39,5.28-12.56,5.28-13.82,0-.37-.14-.52-.41-.52-1.85,0-11,12.48-12.62,14.78s-3.29,3.79-5.69,3.79c-1.1,0-2.75-.37-2.75-2a4.41,4.41,0,0,1,.49-1.63c2.26-4.75,4.59-9.43,6.78-14.19l-.27-.22c-1.65,2.15-3.63,5.12-6,8a1.39,1.39,0,0,1-1.09.44A1.33,1.33,0,0,1,194.82,77a2.69,2.69,0,0,1,.55-1.49c2-2.67,3.91-5.12,5.83-7.72s3.63-5.27,5.62-7.65a2.89,2.89,0,0,1,2.33-1.41c2.13,0,3.91,3.64,3.91,5.64,0,2.3-1.57,4.9-2.6,6.91,2.95-3.34,10.76-12,15.15-12a3.12,3.12,0,0,1,3.09,3.34c0,2-1.3,4.31-2.13,6a77.75,77.75,0,0,0-4.25,10.63,3.28,3.28,0,0,0-.14.81c0,.37.14.6.42.6,1.44,0,5.14-5.13,6.24-6.54a1.35,1.35,0,0,1,1.16-.52,1.38,1.38,0,0,1,1.3,1.49A2.9,2.9,0,0,1,230.55,76.82Z"/><path class="cls-1" d="M261.34,76.59C258.25,81,252.49,88.18,247,88.18c-2.68,0-4.25-1.64-4.25-4.53a8.23,8.23,0,0,1,.2-1.78c-2.74,2.74-6.72,6.23-10.63,6.23-3.08,0-4.32-2.45-4.32-5.42a10.22,10.22,0,0,1,.89-4.16A1.49,1.49,0,0,1,227.33,77v-.15a2.69,2.69,0,0,1,.82-1.86c1.92-2.45,5.35-6.76,6.24-7.72,3.5-3.79,7.68-8,13.1-8,1.64,0,3.5.44,4.25,2.3.69-1.71,2.13-6.46,4.25-6.46s4,4.31,4,6.38a7.92,7.92,0,0,1-.76,3.27c-2.12,4.83-4.73,9.44-6.3,14.49a3.94,3.94,0,0,0-.14.81c0,.37.14.6.41.6,1.37,0,4.59-4.38,6.17-6.39a1.65,1.65,0,0,1,1.1-.67h.14a1.31,1.31,0,0,1,1.3,1.49A3,3,0,0,1,261.34,76.59Zm-13.3-12c-3.09,0-9.54,12.11-9.54,15.23,0,.67.28,1,.76,1,3.15,0,10.29-11.36,10.29-14.63C249.55,65.15,249.07,64.63,248,64.63Z"/><path class="cls-1" d="M58.56,74.36c-.48,0-.89.15-1.64,1-1.72,2.23-4.6,6.17-6.52,6.17-.55,0-.82-.52-.82-1.12,0-1.26,2.19-5.57,2.81-7,1.92-4.45,4.12-8.91,6-13.44a18,18,0,0,0,1.44-6.24c0-2.75-1.24-4.08-3.64-4.08-5.55,0-13.17,7.42-16.66,11.8,1.64-3.78,4.73-9,4.73-13.29,0-2.67-1.24-4-3.77-4C34.43,44.21,27,52.16,23.32,57c1.44-3.63,3-8.31,3-12.4s-2.19-6.53-6.1-6.53C9.74,38.05,1.37,53.79,1.37,64.11A18.15,18.15,0,0,0,4.94,75.4c-1.44,3-3,5.95-4.39,8.92a4.65,4.65,0,0,0-.55,2,2.41,2.41,0,0,0,2.67,2.45c6.18,0,7.86-3.13,10.35-8.53l1.72-3.72C18,69.76,23.93,59.66,29.42,55.05a3.27,3.27,0,0,1,1.92-1c.55,0,.82.3.82,1,0,1.64-11.38,25.18-12.82,28.3a7.21,7.21,0,0,0-1,3.19c0,1.71,1.37,2.23,2.74,2.23a6.89,6.89,0,0,0,2.4-.37c5.08-1.71,6.72-5.94,9-10.77C35.18,71.84,40.12,64.49,45,60.55a3.16,3.16,0,0,1,2-1c.55,0,.83.3.83,1,0,1.19-1.92,5-2.47,6.24-1.85,3.93-3.5,7.8-5.14,11.73a12.57,12.57,0,0,0-1.31,5.2c0,3.2,1.92,5.35,4.87,5.35a11.63,11.63,0,0,0,6.58-2.23c3.36-2.3,6.73-6.46,9.13-9.8a2.49,2.49,0,0,0,.47-1.34A1.3,1.3,0,0,0,58.56,74.36ZM6.51,72a16.29,16.29,0,0,1-1.85-8.1A24,24,0,0,1,7.13,53.35c1.31-2.68,4.6-8.77,7.75-8.77,1.1,0,1.44,1,1.44,1.93C16.32,51.12,8.78,67.09,6.51,72Z"/></g></svg>