<svg xmlns="http://www.w3.org/2000/svg" viewBox="0 0 174.4 173.52"><defs><style>.cls-1{fill:#a42b2b;}</style></defs><g id="Layer_1" data-name="Layer 1"><path class="cls-1" d="M49.16,20.24c-2.77,3.45-3.53,6.05-4.2,10.42-2.27,15.71-5.88,31.92-25.2,31.92-8.48,0-17.64-3.53-17.64-13.52C2.12,43.93,5.31,39,10.94,39c3.28,0,5.71,2,5.71,5.37,0,5-5.63,4.45-5.63,8.65,0,2.27,1.77,3.2,3.7,3.2,5.8,0,10.25-5.63,13.1-9.92a55.72,55.72,0,0,0,4.29-8c2-4,4-8.14,6-12.18a32.21,32.21,0,0,1,4.62-7C44.2,17.56,46.22,16,48.49,16c.92,0,2,.42,2,1.6S49.83,19.32,49.16,20.24Zm6.38-4.45C51,15.79,45.8,13,41.68,11.17A22.29,22.29,0,0,0,30.85,8.65c-8.07,0-15,6.39-15,14.53,0,4.29,2.27,8.4,7.06,8.4s7.56-3.27,7.56-8c0-1.59-.59-3.1-.59-4.7a2.39,2.39,0,0,1,2.35-2.52c2.52,0,3.11,3.28,3.11,5.21,0,7.56-4.7,13.69-12.6,13.69-7.39,0-11.17-5.88-11.17-12.68C11.53,9.74,24.3,0,36.39,0,41.85,0,47,1.6,52,3.36a17.09,17.09,0,0,0,6.21,1.43c5.38,0,5.38-4.45,7.39-4.45,1.35,0,1.6.84,1.6,1.84a7.16,7.16,0,0,1-.08,1.35C66,9.91,62.77,15.79,55.54,15.79Z"/><path class="cls-1" d="M88.13,42.84c-3.78,4.95-10.83,13.1-17.55,13.1-3.28,0-5.21-1.84-5.21-5.12a8.79,8.79,0,0,1,.25-2c-3.36,3.11-8.23,7.06-13,7.06-3.78,0-5.29-2.77-5.29-6.13A10.79,10.79,0,0,1,48.4,45c-.92-.08-1.85-.42-1.93-1.68v-.16a2.94,2.94,0,0,1,1-2.1c2.35-2.78,6.55-7.65,7.64-8.74,4.29-4.28,9.41-9.07,16.05-9.07,2,0,4.28.5,5.21,2.6.83-1.93,2.6-7.31,5.2-7.31,2.77,0,4.88,4.88,4.88,7.23a8.54,8.54,0,0,1-.93,3.69c-2.6,5.46-5.8,10.67-7.73,16.38a4.75,4.75,0,0,0-.17.93c0,.42.17.67.51.67,1.68,0,5.63-5,7.56-7.22A2,2,0,0,1,87,39.48h.17a1.52,1.52,0,0,1,1.6,1.68A3.24,3.24,0,0,1,88.13,42.84ZM71.84,29.32c-3.78,0-11.68,13.69-11.68,17.22,0,.75.34,1.17.93,1.17,3.86,0,12.6-12.85,12.6-16.55A1.61,1.61,0,0,0,71.84,29.32Z"/><path class="cls-1" d="M114.85,43.26a10.76,10.76,0,0,1-2.52,2.6,9.05,9.05,0,0,1-3.87,1.68A11.41,11.41,0,0,1,97,56.2c-4.63,0-10.08-1.68-10.08-7.14,0-4,3.19-6,6.8-6a31.11,31.11,0,0,1,5,.51c.5-3,0-11.6,1.59-13.61a65.53,65.53,0,0,0-8.65,8.73c-1.09,1.26-3,3.7-4.29,5.13a2,2,0,0,1-1.42.59,1.55,1.55,0,0,1-1.51-1.68,3.37,3.37,0,0,1,.84-1.94c3.36-4.28,9.4-11.08,13.44-14.44,3-2.44,6.8-4.79,10.83-4.79,2.61,0,4.87,1.17,4.87,4.11a3.84,3.84,0,0,1-3.78,3.87c-1,0-2-.42-3-.42-1.43,0-2.1.59-2.1,1.85a9.72,9.72,0,0,0,.76,3.1,39.43,39.43,0,0,1,2.43,9.33A6.06,6.06,0,0,0,112,41.16c.76-.84,1.34-1.26,2-1.26a1.37,1.37,0,0,1,1.51,1.51A3.33,3.33,0,0,1,114.85,43.26ZM93.18,46.45c-1.35,0-2.61.51-2.61,2.1A2.28,2.28,0,0,0,93,50.65c2.27,0,3.69-1.59,4.62-3.53A25,25,0,0,0,93.18,46.45Z"/><path class="cls-1" d="M139.37,29.06h-5.12c-1.26,2.61-8.15,16.38-8.15,18.06a.85.85,0,0,0,.93.93c2.94,0,7.3-5.55,9.32-7.9a1.48,1.48,0,0,1,1.18-.59,1.71,1.71,0,0,1,1.68,1.77,2.56,2.56,0,0,1-.68,1.68,44.94,44.94,0,0,1-4.28,5c-4.2,4.2-9.74,8-14.87,8-3.44,0-5.63-1.51-5.63-5.12,0-4.28,4.71-11.26,7.06-15l-.34-.17c-2.1,3-4.28,6-6.72,8.9a1.78,1.78,0,0,1-1.51.76,1.63,1.63,0,0,1-1.59-1.76,2.25,2.25,0,0,1,.5-1.43c3.28-4.12,7.06-8.49,10.42-13.11h-1.1c-1.26,0-2.43-.58-2.43-1.93a1.93,1.93,0,0,1,.08-.67c.59-2.27,2.44-2.52,4.37-2.52h2.77c2.44-3.44,4.62-7.06,7.06-10.67.59-.67,1.09-1.43,2-1.43,2.27,0,4.46,4.29,4.46,6.22,0,2.1-1.1,4.12-2,5.88h3.86a2,2,0,0,1,2,1.93A3.44,3.44,0,0,1,139.37,29.06Z"/><path class="cls-1" d="M173.9,42.76a38.47,38.47,0,0,1-6.05,6.13,43.33,43.33,0,0,1-11,6.21c-6.47,8.74-17.64,22.35-29.49,22.35-4.11,0-7.22-2-7.22-6.47,0-10,14.36-12.77,21.84-14.62A67.2,67.2,0,0,0,144.33,40c0-.58-.08-1.93-.92-1.93h-.09c-1.17.17-3.95,4.12-6,6.55a2.14,2.14,0,0,1-1.59.76,1.47,1.47,0,0,1-1.51-1.6,2.88,2.88,0,0,1,.75-1.93c4.29-5.46,7.73-10.08,11.59-15.45,1.26-1.68,2.61-3,4.88-3,3.27,0,3.52,3.36,3.52,5.88a98.38,98.38,0,0,1-3.27,24.19l2.6-1a36.27,36.27,0,0,0,6-20.25c0-1.68-.17-3.36-.17-5,0-3.44.93-6.63,5-6.63,3.36,0,4.2,3.19,4.2,5.88a17.34,17.34,0,0,1-.17,2.1c-.92,7.72-3.7,14.11-8,20.58a34.9,34.9,0,0,0,7.73-6c.75-.76,1.85-2,2.43-2.69a2,2,0,0,1,1.43-.75,1.56,1.56,0,0,1,1.68,1.59A2.33,2.33,0,0,1,173.9,42.76Zm-36,18.14C133.41,62,128,65.69,128,70.81c0,1.26.59,2.35,2,2.35,5.29,0,9.57-8.73,10.92-13Z"/><path class="cls-1" d="M38.63,116.55c-1.18,1.48-2.66,3.25-4.07,4.73a25.27,25.27,0,0,1-6.66,5.41,10.21,10.21,0,0,1-4.74,1.18c-2.66,0-4.29-1.48-4.29-4.22,0-4.29,5.7-12.43,5.7-13.76,0-.37-.15-.52-.44-.52-2,0-11.92,12.51-13.62,14.8-1.48,2-3.55,3.77-6.14,3.77-1.48,0-2.82-.51-2.82-2A3.32,3.32,0,0,1,2,124.32c2.37-4.81,4.88-9.7,7.33-14.51l-.23-.22C7,112.4,5,115.21,2.59,117.88a1.54,1.54,0,0,1-1.11.44A1.5,1.5,0,0,1,0,116.77a2.48,2.48,0,0,1,.67-1.56c2.59-3.25,5.47-6.95,7.91-10.43A192.48,192.48,0,0,0,20.35,85.24c.52-1,1.33-2.29,2.59-2.29,2.44,0,4.37,4.44,4.37,6.44a7.28,7.28,0,0,1-.82,3.25c-2.66,6.15-5.77,11.92-8.95,17.76,3-3.25,11.25-11.32,15.69-11.32a3.21,3.21,0,0,1,3.33,3.41c0,2-1.41,4.29-2.22,6a67,67,0,0,0-4.66,10.58,2.55,2.55,0,0,0-.15.82c0,.37.15.66.59.66,1.33,0,4.29-3.92,6.51-6.51a1.77,1.77,0,0,1,1.41-.67,1.19,1.19,0,0,1,1.26,1.34A3,3,0,0,1,38.63,116.55Z"/><path class="cls-1" d="M71.78,116.4c-3.33,4.36-9.54,11.54-15.47,11.54-2.88,0-4.58-1.62-4.58-4.51a7.29,7.29,0,0,1,.22-1.78c-3,2.74-7.25,6.22-11.47,6.22-3.33,0-4.66-2.44-4.66-5.4a9.38,9.38,0,0,1,1-4.15c-.82-.07-1.63-.37-1.7-1.48v-.15a2.6,2.6,0,0,1,.88-1.85c2.08-2.44,5.78-6.73,6.74-7.69,3.77-3.78,8.29-8,14.13-8,1.78,0,3.78.44,4.59,2.29C62.16,99.75,63.71,95,66,95s4.29,4.29,4.29,6.37a7.5,7.5,0,0,1-.81,3.25c-2.3,4.81-5.11,9.4-6.81,14.43a4.23,4.23,0,0,0-.15.82c0,.37.15.59.45.59,1.48,0,5-4.37,6.66-6.37a1.77,1.77,0,0,1,1.18-.66H71a1.34,1.34,0,0,1,1.4,1.48A2.83,2.83,0,0,1,71.78,116.4ZM57.42,104.48c-3.33,0-10.28,12.07-10.28,15.18,0,.66.29,1,.81,1,3.41,0,11.1-11.32,11.1-14.58A1.42,1.42,0,0,0,57.42,104.48Z"/><path class="cls-1" d="M106.34,116.55a45.7,45.7,0,0,1-5.7,6.36,21.62,21.62,0,0,1-5,3.55,12.21,12.21,0,0,1-5.4,1.48,4.11,4.11,0,0,1-4.44-4.29c0-5.11,6.21-12.21,6.58-13.62v-.22c0-.29-.07-.52-.52-.52a1.78,1.78,0,0,0-.88.3c-4.67,2.89-9.55,11-12,15.76,0,0-3.11,6.44-4.81,9.62C71,140.82,67,146.15,59.86,146.15c-1.4,0-3-.37-3-2.07a3.38,3.38,0,0,1,1-2.22,116.41,116.41,0,0,0,14.73-22.43L77,110.77l-.22-.29c-1.41,1.7-2.74,3.18-4.15,5-.66.74-1.33,1.7-1.92,2.36a2,2,0,0,1-1.48.82,1.5,1.5,0,0,1-1.48-1.56,1.91,1.91,0,0,1,.52-1.25c1.77-2.22,3.62-4.44,5.33-6.59,2.36-2.89,4.07-5.11,6.21-8l3.48-4.59a2.69,2.69,0,0,1,2.22-1.33c2.44,0,4.07,3.33,4.07,5.4,0,2.89-2,6.51-3.26,9.1,3-3.18,10.29-10.65,14.81-10.65a3.28,3.28,0,0,1,3.33,3.4c0,1.85-1.41,4.22-2.3,5.92-1.18,2.37-2.29,4.74-3.4,7.1-.37.82-1.78,3.48-1.78,4.3,0,.29.08.66.59.66,1.41,0,5.41-4.81,6.59-6.21a1.92,1.92,0,0,1,1.41-.67,1.32,1.32,0,0,1,1.4,1.26A2.33,2.33,0,0,1,106.34,116.55Z"/><path class="cls-1" d="M141.05,116.55a45.7,45.7,0,0,1-5.7,6.36,21.84,21.84,0,0,1-5,3.55,12.17,12.17,0,0,1-5.4,1.48,4.11,4.11,0,0,1-4.44-4.29c0-5.11,6.22-12.21,6.59-13.62v-.22c0-.29-.08-.52-.52-.52a1.81,1.81,0,0,0-.89.3c-4.66,2.89-9.54,11-12,15.76,0,0-3.1,6.44-4.81,9.62-3.18,5.85-7.1,11.18-14.28,11.18-1.41,0-3-.37-3-2.07a3.38,3.38,0,0,1,1-2.22,115.9,115.9,0,0,0,14.72-22.43l4.45-8.66-.23-.29c-1.4,1.7-2.73,3.18-4.14,5-.67.74-1.33,1.7-1.92,2.36a2,2,0,0,1-1.49.82,1.5,1.5,0,0,1-1.47-1.56,2,2,0,0,1,.51-1.25c1.78-2.22,3.63-4.44,5.33-6.59,2.37-2.89,4.07-5.11,6.22-8L118,96.64a2.67,2.67,0,0,1,2.22-1.33c2.44,0,4.07,3.33,4.07,5.4,0,2.89-2,6.51-3.26,9.1,3-3.18,10.29-10.65,14.8-10.65a3.28,3.28,0,0,1,3.33,3.4c0,1.85-1.41,4.22-2.29,5.92-1.19,2.37-2.3,4.74-3.41,7.1-.37.82-1.77,3.48-1.77,4.3,0,.29.07.66.59.66,1.4,0,5.4-4.81,6.59-6.21a1.9,1.9,0,0,1,1.4-.67,1.32,1.32,0,0,1,1.41,1.26A2.38,2.38,0,0,1,141.05,116.55Z"/><path class="cls-1" d="M172.2,116.32a34,34,0,0,1-5.33,5.41,38.15,38.15,0,0,1-9.69,5.47c-5.7,7.7-15.55,19.69-26,19.69-3.63,0-6.36-1.78-6.36-5.7,0-8.81,12.65-11.25,19.24-12.88a59.22,59.22,0,0,0,2.07-14.43c0-.52-.07-1.7-.82-1.7h-.07c-1,.15-3.48,3.63-5.33,5.77a1.88,1.88,0,0,1-1.4.67,1.31,1.31,0,0,1-1.34-1.41,2.55,2.55,0,0,1,.67-1.7c3.77-4.81,6.81-8.88,10.21-13.62,1.11-1.48,2.3-2.66,4.3-2.66,2.88,0,3.1,3,3.1,5.18a86.76,86.76,0,0,1-2.88,21.31l2.29-.89A31.9,31.9,0,0,0,160.21,107c0-1.48-.15-3-.15-4.44,0-3,.82-5.85,4.37-5.85,3,0,3.7,2.82,3.7,5.18a15.06,15.06,0,0,1-.15,1.85,40.5,40.5,0,0,1-7,18.14,30.78,30.78,0,0,0,6.81-5.26c.66-.67,1.63-1.78,2.14-2.37a1.77,1.77,0,0,1,1.26-.66,1.38,1.38,0,0,1,1.48,1.4A2,2,0,0,1,172.2,116.32Zm-31.75,16c-3.92,1-8.73,4.22-8.73,8.73,0,1.11.52,2.07,1.77,2.07,4.67,0,8.44-7.69,9.62-11.47Z"/><path class="cls-1" d="M39.5,82.31c.24,4,.36,6.86.34,8h0c.42-1,1.16-2.59,3.83-8h1.58c.29,5.62.32,7,.29,7.92h0c.43-1,1.44-3.13,3.89-7.92H51.1l-5,9.63H44.4c-.21-3.32-.38-6.42-.34-7.67h0c-.48,1.21-1.83,3.91-3.69,7.67H38.6l-.66-9.63Z"/><path class="cls-1" d="M53.1,82.31h1.58l-2.06,9.63H51.07ZM54,78h1.58l-.44,2.07H53.58Z"/><path class="cls-1" d="M56.27,82.31h1.62l.59-2.77H60l-.59,2.77h2l-.29,1.29H59.16L58,89.44c-.2.87-.16,1.31.68,1.31a3.89,3.89,0,0,0,.95-.1l-.29,1.26a4.06,4.06,0,0,1-1.33.15c-1.52,0-2-.73-1.67-2.34l1.29-6.12H56Z"/><path class="cls-1" d="M64.18,78h1.57L64.5,83.85a3.74,3.74,0,0,1,3.21-1.73c1.44,0,3,.72,2.43,3.63l-1.29,6.19H67.27L68.53,86c.34-1.64,0-2.49-1.47-2.49-1.59,0-2.73,1.31-3.13,3.11l-1.14,5.32H61.23Z"/><path class="cls-1" d="M102.44,165.86a4.22,4.22,0,0,1-4.27,3.07c-2.36,0-3.5-1.54-3.5-3.76,0-2.91,1.62-6.25,5-6.25,2.72,0,3.47,2,3.36,3.27h-1.54c0-1.08-.51-2-1.92-2-2.24,0-3.25,2.76-3.25,4.85,0,1.82.82,2.58,2.09,2.58a2.71,2.71,0,0,0,2.47-1.78Z"/><path class="cls-1" d="M113,162.89c0,2.55-1.43,6-5.13,6-2.34,0-3.61-1.48-3.61-3.87,0-2.68,1.61-6.14,5.09-6.14C111.5,158.92,113,160.35,113,162.89ZM105.82,165c0,1.61.76,2.58,2.17,2.58,2.32,0,3.34-2.75,3.34-4.79,0-1.61-.7-2.6-2.18-2.6C106.93,160.23,105.82,163,105.82,165Z"/><path class="cls-1" d="M115.55,161.81c.19-.91.36-1.79.53-2.7h1.54a13.8,13.8,0,0,1-.24,1.48,3.26,3.26,0,0,1,2.88-1.67,1.94,1.94,0,0,1,2.23,1.77,3.73,3.73,0,0,1,3.21-1.77c1.59,0,2.86.93,2.29,3.57l-1.32,6.25h-1.54l1.27-6.06c.25-1.12.21-2.37-1.35-2.37s-2.39,1.33-2.74,2.94l-1.15,5.49h-1.54l1.23-5.89c.32-1.5.15-2.54-1.25-2.54s-2.49,1.42-2.85,3.13l-1.1,5.3h-1.56Z"/><path class="cls-1" d="M131,161.94c.28-1.31.47-2.24.57-2.83h1.56c0,.21-.19,1.08-.31,1.65a3.81,3.81,0,0,1,3.29-1.84c1.94,0,3.06,1.45,3.06,3.65,0,3.15-1.81,6.36-5.07,6.36a2.65,2.65,0,0,1-2.68-1.48l-1.09,5.07h-1.57Zm3.11,5.63c2.34,0,3.41-2.72,3.41-4.85,0-1.6-.75-2.41-2-2.41-1.8,0-3,1.78-3.44,3.66C131.61,166.1,132.14,167.57,134.09,167.57Z"/><path class="cls-1" d="M147.91,166.35c-.17.82-.4,2-.46,2.39h-1.54c0-.36.14-1,.25-1.48a3.41,3.41,0,0,1-3.27,1.67,2.37,2.37,0,0,1-2.64-2.43c0-2.73,2.57-3.34,4.5-3.53,1-.08,1.85-.08,2.34-.1l.13-.64c.17-.91.12-2.09-1.72-2.09a2.17,2.17,0,0,0-2.36,1.59h-1.62c.35-1.44,1.41-2.81,4.11-2.81,2.2,0,3.65,1,3.15,3.31ZM146.84,164c-.51,0-1.16,0-2,.12-1.56.15-3,.58-3,2.12,0,.73.48,1.35,1.54,1.35,2.11,0,2.93-1.63,3.35-3.44Z"/><path class="cls-1" d="M151.8,161.56c.17-.83.33-1.65.48-2.45h1.54c0,.31-.23,1.39-.29,1.64a3.58,3.58,0,0,1,3.23-1.83c1.84,0,3,1.07,2.4,3.8l-1.26,6h-1.58l1.26-6c.32-1.44,0-2.45-1.48-2.45-1.79,0-2.81,1.65-3.23,3.61l-1,4.82h-1.56Z"/><path class="cls-1" d="M162.77,159.11c.59,4.28,1,7.45,1,8.4h0c.55-1,1.75-3.72,4.22-8.4h1.67l-5.36,10.17c-1.67,3.19-2.56,3.43-4.33,3.43a5.27,5.27,0,0,1-1.1-.11l.32-1.39a4,4,0,0,0,.88.08c1.25,0,1.71-.51,2.56-2l-1.48-10.17Z"/><path class="cls-1" d="M78.71,75.41l1.75-8.34H78.92l.3-1.3h1.52l.31-1.38c.38-1.77,1.31-3.14,3.21-3.14a3.71,3.71,0,0,1,1.12.16l-.31,1.34a3.79,3.79,0,0,0-.78-.09c-.91,0-1.42.59-1.67,1.75l-.3,1.36h1.9l-.29,1.3H82l-1.74,8.34Z"/><path class="cls-1" d="M92.82,69.54c0,2.54-1.42,6-5.12,6-2.34,0-3.61-1.49-3.61-3.88,0-2.68,1.61-6.13,5.09-6.13C91.38,65.57,92.82,67,92.82,69.54ZM85.7,71.68c0,1.62.76,2.59,2.17,2.59,2.31,0,3.34-2.76,3.34-4.79,0-1.62-.7-2.6-2.19-2.6C86.8,66.88,85.7,69.63,85.7,71.68Z"/><path class="cls-1" d="M103.05,69.54c0,2.54-1.43,6-5.13,6-2.34,0-3.61-1.49-3.61-3.88,0-2.68,1.61-6.13,5.09-6.13C101.6,65.57,103.05,67,103.05,69.54Zm-7.13,2.14c0,1.62.76,2.59,2.17,2.59,2.32,0,3.34-2.76,3.34-4.79,0-1.62-.7-2.6-2.18-2.6C97,66.88,95.92,69.63,95.92,71.68Z"/><path class="cls-1" d="M115,61.44l-2.38,11.27c-.19.89-.38,1.8-.53,2.68h-1.54a12.13,12.13,0,0,1,.27-1.52,3.53,3.53,0,0,1-3.19,1.71c-2.08,0-3.12-1.56-3.12-3.75,0-2.83,1.69-6.26,5-6.26a2.66,2.66,0,0,1,2.68,1.5l1.2-5.63Zm-8.84,10.24c0,1.71.74,2.51,2,2.51,2,0,3-1.81,3.45-3.93s-.19-3.31-2-3.31C107.34,67,106.16,69.55,106.16,71.68Z"/></g></svg>